<svg version="1.1" xmlns="http://www.w3.org/2000/svg" viewBox="0 0 941.2643320536456 500.34852448256356" width="1882.5286641072912" height="1000.6970489651271">
  <!-- svg-source:excalidraw -->
  
  <defs>
    <style class="style-fonts">
      @font-face {
        font-family: "Virgil";
        src: url("https://excalidraw.com/Virgil.woff2");
      }
      @font-face {
        font-family: "Cascadia";
        src: url("https://excalidraw.com/Cascadia.woff2");
      }
      @font-face {
        font-family: "Assistant";
        src: url("https://excalidraw.com/Assistant-Regular.woff2");
      }
    </style>
    
  </defs>
  <rect x="0" y="0" width="941.2643320536456" height="500.34852448256356" fill="#ffffff"></rect><g stroke-linecap="round" transform="translate(10 10.711805732563448) rotate(0 161.39843749999997 239.81835937500006)"><path d="M32 0 C107.3 2.83, 181.34 1.4, 290.8 0 M32 0 C86.54 -0.73, 141.46 -1.6, 290.8 0 M290.8 0 C311.65 0.54, 321.25 10.61, 322.8 32 M290.8 0 C310.17 0.14, 324.56 12.13, 322.8 32 M322.8 32 C322.97 121.84, 322.18 212.23, 322.8 447.64 M322.8 32 C321.53 194.02, 321.98 356.67, 322.8 447.64 M322.8 447.64 C324.52 470.51, 313.41 480.09, 290.8 479.64 M322.8 447.64 C322.16 470.08, 313.69 477.37, 290.8 479.64 M290.8 479.64 C220.74 477.69, 150.66 476.81, 32 479.64 M290.8 479.64 C220.52 478.28, 148.97 478.95, 32 479.64 M32 479.64 C10.74 480.1, 0.33 467.82, 0 447.64 M32 479.64 C9.18 477.72, 1.74 467.9, 0 447.64 M0 447.64 C2.25 320.43, 2.84 194.68, 0 32 M0 447.64 C1.5 358.88, 1.29 269.3, 0 32 M0 32 C0.98 8.86, 11.38 1.51, 32 0 M0 32 C-2.26 11.69, 11.85 -2.13, 32 0" stroke="#1e1e1e" stroke-width="2" fill="none"></path></g><g transform="translate(139.5084686279297 50.53016510756348) rotate(0 31.88996887207034 200)"><text x="31.889968872070312" y="17.52" font-family="Virgil, Segoe UI Emoji" font-size="20px" fill="#1e1e1e" text-anchor="middle" style="white-space: pre;" direction="ltr" dominant-baseline="alphabetic">Nextjs</text><text x="31.889968872070312" y="42.519999999999996" font-family="Virgil, Segoe UI Emoji" font-size="20px" fill="#1e1e1e" text-anchor="middle" style="white-space: pre;" direction="ltr" dominant-baseline="alphabetic">app</text><text x="31.889968872070312" y="67.52" font-family="Virgil, Segoe UI Emoji" font-size="20px" fill="#1e1e1e" text-anchor="middle" style="white-space: pre;" direction="ltr" dominant-baseline="alphabetic"></text><text x="31.889968872070312" y="92.52" font-family="Virgil, Segoe UI Emoji" font-size="20px" fill="#1e1e1e" text-anchor="middle" style="white-space: pre;" direction="ltr" dominant-baseline="alphabetic"></text><text x="31.889968872070312" y="117.52" font-family="Virgil, Segoe UI Emoji" font-size="20px" fill="#1e1e1e" text-anchor="middle" style="white-space: pre;" direction="ltr" dominant-baseline="alphabetic"></text><text x="31.889968872070312" y="142.52" font-family="Virgil, Segoe UI Emoji" font-size="20px" fill="#1e1e1e" text-anchor="middle" style="white-space: pre;" direction="ltr" dominant-baseline="alphabetic"></text><text x="31.889968872070312" y="167.52" font-family="Virgil, Segoe UI Emoji" font-size="20px" fill="#1e1e1e" text-anchor="middle" style="white-space: pre;" direction="ltr" dominant-baseline="alphabetic"></text><text x="31.889968872070312" y="192.52" font-family="Virgil, Segoe UI Emoji" font-size="20px" fill="#1e1e1e" text-anchor="middle" style="white-space: pre;" direction="ltr" dominant-baseline="alphabetic"></text><text x="31.889968872070312" y="217.52" font-family="Virgil, Segoe UI Emoji" font-size="20px" fill="#1e1e1e" text-anchor="middle" style="white-space: pre;" direction="ltr" dominant-baseline="alphabetic"></text><text x="31.889968872070312" y="242.52" font-family="Virgil, Segoe UI Emoji" font-size="20px" fill="#1e1e1e" text-anchor="middle" style="white-space: pre;" direction="ltr" dominant-baseline="alphabetic"></text><text x="31.889968872070312" y="267.52" font-family="Virgil, Segoe UI Emoji" font-size="20px" fill="#1e1e1e" text-anchor="middle" style="white-space: pre;" direction="ltr" dominant-baseline="alphabetic"></text><text x="31.889968872070312" y="292.52" font-family="Virgil, Segoe UI Emoji" font-size="20px" fill="#1e1e1e" text-anchor="middle" style="white-space: pre;" direction="ltr" dominant-baseline="alphabetic"></text><text x="31.889968872070312" y="317.52" font-family="Virgil, Segoe UI Emoji" font-size="20px" fill="#1e1e1e" text-anchor="middle" style="white-space: pre;" direction="ltr" dominant-baseline="alphabetic"></text><text x="31.889968872070312" y="342.52" font-family="Virgil, Segoe UI Emoji" font-size="20px" fill="#1e1e1e" text-anchor="middle" style="white-space: pre;" direction="ltr" dominant-baseline="alphabetic"></text><text x="31.889968872070312" y="367.52" font-family="Virgil, Segoe UI Emoji" font-size="20px" fill="#1e1e1e" text-anchor="middle" style="white-space: pre;" direction="ltr" dominant-baseline="alphabetic"></text><text x="31.889968872070312" y="392.52" font-family="Virgil, Segoe UI Emoji" font-size="20px" fill="#1e1e1e" text-anchor="middle" style="white-space: pre;" direction="ltr" dominant-baseline="alphabetic"></text></g><g stroke-linecap="round" transform="translate(456.6463789581392 10) rotate(0 109.23828125 93.01953125)"><path d="M32 0 C72.78 -0.67, 112.19 0.93, 186.48 0 M32 0 C71.64 2, 111.74 2.34, 186.48 0 M186.48 0 C207.35 -1.38, 217.66 9.88, 218.48 32 M186.48 0 C206.68 0.48, 217.87 11.44, 218.48 32 M218.48 32 C219.48 78.7, 219.37 121.39, 218.48 154.04 M218.48 32 C219.58 63.21, 218.74 94.01, 218.48 154.04 M218.48 154.04 C217.64 175.34, 208.93 185.74, 186.48 186.04 M218.48 154.04 C218.48 176.12, 209.71 184.84, 186.48 186.04 M186.48 186.04 C142.86 184.92, 101.17 186.1, 32 186.04 M186.48 186.04 C143.32 185.87, 99.37 187.08, 32 186.04 M32 186.04 C10.87 184.21, -0.08 174.88, 0 154.04 M32 186.04 C11.64 186.21, 0.75 173.65, 0 154.04 M0 154.04 C-1.38 128.88, 2.06 102.48, 0 32 M0 154.04 C-0.32 122.99, -0.15 90.52, 0 32 M0 32 C1.87 9.36, 12.56 1.35, 32 0 M0 32 C-0.28 9.59, 12.3 -1.06, 32 0" stroke="#1e1e1e" stroke-width="2" fill="none"></path></g><g transform="translate(519.8747038482759 78.01953125) rotate(0 46.00995635986328 25)"><text x="46.00995635986328" y="17.52" font-family="Virgil, Segoe UI Emoji" font-size="20px" fill="#1e1e1e" text-anchor="middle" style="white-space: pre;" direction="ltr" dominant-baseline="alphabetic">Supabase</text><text x="46.00995635986328" y="42.519999999999996" font-family="Virgil, Segoe UI Emoji" font-size="20px" fill="#1e1e1e" text-anchor="middle" style="white-space: pre;" direction="ltr" dominant-baseline="alphabetic">api</text></g><g stroke-linecap="round" transform="translate(453.0565352081392 274.73046875) rotate(0 109.23828125 93.01953125)"><path d="M32 0 C70.88 -0.57, 109.3 -0.56, 186.48 0 M32 0 C83.25 0.12, 133.72 0.34, 186.48 0 M186.48 0 C206.77 -1.75, 217.39 11.06, 218.48 32 M186.48 0 C207.8 -1.32, 218.5 8.71, 218.48 32 M218.48 32 C217.56 79.74, 219.58 128.21, 218.48 154.04 M218.48 32 C218.25 66.44, 218.28 101.83, 218.48 154.04 M218.48 154.04 C218.27 176.92, 208.69 185.73, 186.48 186.04 M218.48 154.04 C219.72 173.79, 207.77 186.8, 186.48 186.04 M186.48 186.04 C127.68 186.38, 67.07 186.14, 32 186.04 M186.48 186.04 C135.15 184.41, 84.58 183.9, 32 186.04 M32 186.04 C11.98 185.85, -1.45 175.68, 0 154.04 M32 186.04 C11.86 186.46, 0.8 173.53, 0 154.04 M0 154.04 C1.83 116.62, 2.01 82.46, 0 32 M0 154.04 C-1.27 114.3, -0.78 74.78, 0 32 M0 32 C0.74 10.23, 12.61 -1.89, 32 0 M0 32 C1.03 8.5, 8.84 -1.73, 32 0" stroke="#1e1e1e" stroke-width="2" fill="none"></path></g><g transform="translate(516.2848600982759 342.75) rotate(0 46.00995635986328 25)"><text x="46.00995635986328" y="17.52" font-family="Virgil, Segoe UI Emoji" font-size="20px" fill="#1e1e1e" text-anchor="middle" style="white-space: pre;" direction="ltr" dominant-baseline="alphabetic">Supabase</text><text x="46.00995635986328" y="42.519999999999996" font-family="Virgil, Segoe UI Emoji" font-size="20px" fill="#1e1e1e" text-anchor="middle" style="white-space: pre;" direction="ltr" dominant-baseline="alphabetic">realtime</text></g><g stroke-linecap="round"><g transform="translate(682.2088789581392 169.04450863824633) rotate(0 54.83765978873271 70.7384810891707)"><path d="M-0.33 1.02 C17.93 24.48, 91.29 118.2, 109.57 141.45 M1.7 0.51 C19.78 24.11, 90.79 119.5, 108.56 142.97" stroke="#1e1e1e" stroke-width="2" fill="none"></path></g><g transform="translate(682.2088789581392 169.04450863824633) rotate(0 54.83765978873271 70.7384810891707)"><path d="M20.88 14.26 C16.06 10, 7.86 5.55, -0.33 1.02 M20.88 14.26 C15.62 10.88, 11.9 7.44, -0.33 1.02" stroke="#1e1e1e" stroke-width="2" fill="none"></path></g><g transform="translate(682.2088789581392 169.04450863824633) rotate(0 54.83765978873271 70.7384810891707)"><path d="M7.41 24.79 C6.62 17.36, 2.52 9.72, -0.33 1.02 M7.41 24.79 C5.2 19.08, 4.47 13.3, -0.33 1.02" stroke="#1e1e1e" stroke-width="2" fill="none"></path></g><g transform="translate(682.2088789581392 169.04450863824633) rotate(0 54.83765978873271 70.7384810891707)"><path d="M87.63 129.31 C95.78 133.34, 100.4 137.08, 108.56 142.97 M87.63 129.31 C91.54 131.89, 97.17 134.41, 108.56 142.97" stroke="#1e1e1e" stroke-width="2" fill="none"></path></g><g transform="translate(682.2088789581392 169.04450863824633) rotate(0 54.83765978873271 70.7384810891707)"><path d="M101.31 119.05 C105.36 126.16, 105.81 133.02, 108.56 142.97 M101.31 119.05 C102.12 123.9, 104.72 128.7, 108.56 142.97" stroke="#1e1e1e" stroke-width="2" fill="none"></path></g></g><mask></mask><g stroke-linecap="round"><g transform="translate(690.865843696434 384.95307173083495) rotate(0 39.96723555467133 -9.61258231526432)"><path d="M0.88 0.74 C14.43 -2.23, 67.37 -15.1, 80.56 -18.43 M-0.12 0.09 C13.39 -3.17, 66.71 -17.13, 79.94 -20.13" stroke="#1e1e1e" stroke-width="2" fill="none"></path></g><g transform="translate(690.865843696434 384.95307173083495) rotate(0 39.96723555467133 -9.61258231526432)"><path d="M21.75 -13.02 C17.93 -8.53, 13.03 -6.16, 0.88 0.74 M21.75 -13.02 C15.55 -9.2, 8.98 -4.84, 0.88 0.74" stroke="#1e1e1e" stroke-width="2" fill="none"></path></g><g transform="translate(690.865843696434 384.95307173083495) rotate(0 39.96723555467133 -9.61258231526432)"><path d="M25.72 3.61 C21.03 4.15, 15.18 2.54, 0.88 0.74 M25.72 3.61 C18.37 2.47, 10.61 1.85, 0.88 0.74" stroke="#1e1e1e" stroke-width="2" fill="none"></path></g><g transform="translate(690.865843696434 384.95307173083495) rotate(0 39.96723555467133 -9.61258231526432)"><path d="M59.18 -6.2 C65.46 -8.64, 70.52 -12.9, 79.94 -20.13 M59.18 -6.2 C65.51 -10.75, 71.39 -14.67, 79.94 -20.13" stroke="#1e1e1e" stroke-width="2" fill="none"></path></g><g transform="translate(690.865843696434 384.95307173083495) rotate(0 39.96723555467133 -9.61258231526432)"><path d="M55.09 -22.81 C62.26 -21.3, 68.3 -21.58, 79.94 -20.13 M55.09 -22.81 C62.6 -22.39, 69.7 -21.35, 79.94 -20.13" stroke="#1e1e1e" stroke-width="2" fill="none"></path></g></g><mask></mask><g stroke-linecap="round"><g transform="translate(352.62890624999994 119.21492656512038) rotate(0 40.76850197906987 -0.5119880023552525)"><path d="M0.97 -0.38 C14.52 -0.64, 67.34 -1.28, 80.77 -1.25 M0.03 -1.63 C14.01 -1.73, 69.62 0.25, 83.09 0.16" stroke="#1e1e1e" stroke-width="2" fill="none"></path></g><g transform="translate(352.62890624999994 119.21492656512038) rotate(0 40.76850197906987 -0.5119880023552525)"><path d="M24.36 -9.23 C17.75 -8.04, 12 -4.48, 0.97 -0.38 M24.36 -9.23 C15.98 -6.14, 7.22 -2.75, 0.97 -0.38" stroke="#1e1e1e" stroke-width="2" fill="none"></path></g><g transform="translate(352.62890624999994 119.21492656512038) rotate(0 40.76850197906987 -0.5119880023552525)"><path d="M24.57 7.87 C17.86 4.68, 12.06 3.86, 0.97 -0.38 M24.57 7.87 C16.28 4.7, 7.44 1.83, 0.97 -0.38" stroke="#1e1e1e" stroke-width="2" fill="none"></path></g><g transform="translate(352.62890624999994 119.21492656512038) rotate(0 40.76850197906987 -0.5119880023552525)"><path d="M59.45 8.31 C64.86 4.76, 71.17 3.96, 83.09 0.16 M59.45 8.31 C68.44 5.34, 76.89 2.52, 83.09 0.16" stroke="#1e1e1e" stroke-width="2" fill="none"></path></g><g transform="translate(352.62890624999994 119.21492656512038) rotate(0 40.76850197906987 -0.5119880023552525)"><path d="M59.75 -8.79 C65.12 -7.96, 71.36 -4.36, 83.09 0.16 M59.75 -8.79 C68.47 -5.5, 76.81 -2.06, 83.09 0.16" stroke="#1e1e1e" stroke-width="2" fill="none"></path></g></g><mask></mask><g stroke-linecap="round"><g transform="translate(348.7380603357963 375.40423554948416) rotate(0 41.77240822906964 -0.31406705591672335)"><path d="M0.18 0.13 C14.14 0.2, 69.47 -0.58, 83.46 -0.72 M-1.18 -0.84 C12.64 -0.48, 68.33 0.53, 82.47 0.77" stroke="#1e1e1e" stroke-width="2" fill="none"></path></g><g transform="translate(348.7380603357963 375.40423554948416) rotate(0 41.77240822906964 -0.31406705591672335)"><path d="M23.59 -8.64 C17.29 -6.33, 10.47 -2.8, 0.18 0.13 M23.59 -8.64 C15.95 -6.97, 9.7 -4.4, 0.18 0.13" stroke="#1e1e1e" stroke-width="2" fill="none"></path></g><g transform="translate(348.7380603357963 375.40423554948416) rotate(0 41.77240822906964 -0.31406705591672335)"><path d="M23.76 8.46 C17.56 6.06, 10.7 4.88, 0.18 0.13 M23.76 8.46 C15.9 5.08, 9.6 2.6, 0.18 0.13" stroke="#1e1e1e" stroke-width="2" fill="none"></path></g><g transform="translate(348.7380603357963 375.40423554948416) rotate(0 41.77240822906964 -0.31406705591672335)"><path d="M58.83 8.9 C65.63 6.49, 71.78 5.36, 82.47 0.77 M58.83 8.9 C64.91 5.46, 72.56 3.04, 82.47 0.77" stroke="#1e1e1e" stroke-width="2" fill="none"></path></g><g transform="translate(348.7380603357963 375.40423554948416) rotate(0 41.77240822906964 -0.31406705591672335)"><path d="M59.13 -8.19 C65.7 -5.9, 71.75 -2.32, 82.47 0.77 M59.13 -8.19 C65.29 -6.58, 72.84 -3.96, 82.47 0.77" stroke="#1e1e1e" stroke-width="2" fill="none"></path></g></g><mask></mask><g stroke-linecap="round" transform="translate(24.681535208139223 106.35546875) rotate(0 146.71484375 90.1640625)"><path d="M32 0 C120.32 -0.53, 209.66 -2.69, 261.43 0 M32 0 C121.93 1.15, 210.9 0.08, 261.43 0 M261.43 0 C284.76 -0.55, 292.38 12.6, 293.43 32 M261.43 0 C281.62 -2.12, 294.96 11.58, 293.43 32 M293.43 32 C292.97 68.74, 291.44 106.14, 293.43 148.33 M293.43 32 C293.52 72.6, 294.5 115.03, 293.43 148.33 M293.43 148.33 C291.87 169.46, 283.74 178.39, 261.43 180.33 M293.43 148.33 C293.59 171.44, 284.43 179.34, 261.43 180.33 M261.43 180.33 C216.13 182.16, 168.19 180.81, 32 180.33 M261.43 180.33 C205.83 179.86, 150.86 179.54, 32 180.33 M32 180.33 C11.76 181.35, -0.45 168.87, 0 148.33 M32 180.33 C12.21 180.79, -0.22 168.84, 0 148.33 M0 148.33 C2.89 125.38, 1.29 100.65, 0 32 M0 148.33 C1.29 115.25, 1.36 80.06, 0 32 M0 32 C-0.98 8.95, 8.7 -1.97, 32 0 M0 32 C-2.16 10.78, 10.5 0.59, 32 0" stroke="#2f9e44" stroke-width="2" fill="none"></path></g><g stroke-linecap="round" transform="translate(27.712785208139223 294.15625) rotate(0 146.71484375 90.1640625)"><path d="M32 0 C87.47 -0.71, 143.33 -1.29, 261.43 0 M32 0 C105.26 -1.31, 180.02 -0.88, 261.43 0 M261.43 0 C284.16 1.78, 293.38 10.32, 293.43 32 M261.43 0 C281.93 1.72, 293.5 11.32, 293.43 32 M293.43 32 C290.64 56.45, 291.1 83.76, 293.43 148.33 M293.43 32 C293.78 68.09, 294.52 102.72, 293.43 148.33 M293.43 148.33 C292.89 169.35, 284.28 181.22, 261.43 180.33 M293.43 148.33 C293.13 171.52, 284.33 180.89, 261.43 180.33 M261.43 180.33 C197.54 180.55, 132.74 180.24, 32 180.33 M261.43 180.33 C185.32 181.11, 110.09 181.43, 32 180.33 M32 180.33 C11.54 182.1, -1.04 169.64, 0 148.33 M32 180.33 C8.8 179.71, 0.51 171.55, 0 148.33 M0 148.33 C0.22 105.69, -0.55 65.47, 0 32 M0 148.33 C0.03 115.99, -1.63 84.13, 0 32 M0 32 C0.18 11.53, 10.82 -0.94, 32 0 M0 32 C1.79 11.02, 12.26 0.3, 32 0" stroke="#1971c2" stroke-width="2" fill="none"></path></g><g transform="translate(79.16591020813922 300.16015625) rotate(0 89.55992889404297 12.5)"><text x="0" y="17.52" font-family="Virgil, Segoe UI Emoji" font-size="20px" fill="#1971c2" text-anchor="start" style="white-space: pre;" direction="ltr" dominant-baseline="alphabetic">Create game page</text></g><g transform="translate(92.68020006409625 106.53515625) rotate(0 74.29994201660156 12.5)"><text x="0" y="17.52" font-family="Virgil, Segoe UI Emoji" font-size="20px" fill="#2f9e44" text-anchor="start" style="white-space: pre;" direction="ltr" dominant-baseline="alphabetic">Join game page</text></g><g stroke-linecap="round" transform="translate(43.31044145813922 147.46484375) rotate(0 39.0546875 64.203125)"><path d="M19.53 0 C32.79 0.69, 49.11 -1.14, 58.58 0 M58.58 0 C72.83 -0.21, 79.16 5.07, 78.11 19.53 M78.11 19.53 C77.16 50.86, 79.28 84.51, 78.11 108.88 M78.11 108.88 C80.09 122.71, 73.12 127.18, 58.58 128.41 M58.58 128.41 C49.05 130.39, 38.27 129.22, 19.53 128.41 M19.53 128.41 C7.81 127.3, 1.41 120.53, 0 108.88 M0 108.88 C-0.03 80.32, -0.33 50.06, 0 19.53 M0 19.53 C0.47 6.78, 6.24 -1.25, 19.53 0" stroke="#2f9e44" stroke-width="2.5" fill="none" stroke-dasharray="1.5 8"></path></g><g transform="translate(49.3731550811861 191.66796875) rotate(0 32.991973876953125 20)"><text x="32.991973876953125" y="14.016" font-family="Virgil, Segoe UI Emoji" font-size="16px" fill="#2f9e44" text-anchor="middle" style="white-space: pre;" direction="ltr" dominant-baseline="alphabetic">realtime</text><text x="32.991973876953125" y="34.016" font-family="Virgil, Segoe UI Emoji" font-size="16px" fill="#2f9e44" text-anchor="middle" style="white-space: pre;" direction="ltr" dominant-baseline="alphabetic">listeners</text></g><g stroke-linecap="round" transform="translate(134.59169145813922 147.46484375) rotate(0 39.0546875 64.203125)"><path d="M19.53 0 C29.45 1.06, 41.79 1.73, 58.58 0 M58.58 0 C71.4 0.36, 79.27 7.15, 78.11 19.53 M78.11 19.53 C77.13 43.45, 76.83 66.16, 78.11 108.88 M78.11 108.88 C79.45 121.15, 70.57 128.5, 58.58 128.41 M58.58 128.41 C45.6 128.71, 35.71 126.68, 19.53 128.41 M19.53 128.41 C7.81 130.01, -0.05 120.34, 0 108.88 M0 108.88 C1.88 83.36, -1.57 54.16, 0 19.53 M0 19.53 C-1.14 5.47, 6.34 0.36, 19.53 0" stroke="#2f9e44" stroke-width="2.5" fill="none" stroke-dasharray="1.5 8"></path></g><g transform="translate(140.03039690247516 171.66796875) rotate(0 33.61598205566406 40)"><text x="33.61598205566406" y="14.016" font-family="Virgil, Segoe UI Emoji" font-size="16px" fill="#2f9e44" text-anchor="middle" style="white-space: pre;" direction="ltr" dominant-baseline="alphabetic">svg</text><text x="33.61598205566406" y="34.016" font-family="Virgil, Segoe UI Emoji" font-size="16px" fill="#2f9e44" text-anchor="middle" style="white-space: pre;" direction="ltr" dominant-baseline="alphabetic">animator</text><text x="33.61598205566406" y="54.016" font-family="Virgil, Segoe UI Emoji" font-size="16px" fill="#2f9e44" text-anchor="middle" style="white-space: pre;" direction="ltr" dominant-baseline="alphabetic">&amp;</text><text x="33.61598205566406" y="74.016" font-family="Virgil, Segoe UI Emoji" font-size="16px" fill="#2f9e44" text-anchor="middle" style="white-space: pre;" direction="ltr" dominant-baseline="alphabetic">timeline</text></g><g stroke-linecap="round" transform="translate(225.15028520813922 145.63671875) rotate(0 39.0546875 64.203125)"><path d="M19.53 0 C34.86 -0.62, 45.93 0.53, 58.58 0 M58.58 0 C72.18 1.8, 77.82 4.83, 78.11 19.53 M78.11 19.53 C78.38 39.85, 78.31 60.58, 78.11 108.88 M78.11 108.88 C78.23 121.57, 70.69 127.67, 58.58 128.41 M58.58 128.41 C45.62 129.05, 36.18 129.18, 19.53 128.41 M19.53 128.41 C6.35 127.77, -0.99 123.54, 0 108.88 M0 108.88 C1.19 85.8, -1.02 60.65, 0 19.53 M0 19.53 C1.31 7.19, 5.64 -0.56, 19.53 0" stroke="#2f9e44" stroke-width="2.5" fill="none" stroke-dasharray="1.5 8"></path></g><g transform="translate(232.3569960235689 189.83984375) rotate(0 31.847976684570312 20)"><text x="31.847976684570312" y="14.016" font-family="Virgil, Segoe UI Emoji" font-size="16px" fill="#2f9e44" text-anchor="middle" style="white-space: pre;" direction="ltr" dominant-baseline="alphabetic">message</text><text x="31.847976684570312" y="34.016" font-family="Virgil, Segoe UI Emoji" font-size="16px" fill="#2f9e44" text-anchor="middle" style="white-space: pre;" direction="ltr" dominant-baseline="alphabetic">input</text></g><g stroke-opacity="0" fill-opacity="0" stroke-linecap="round" transform="translate(790.0581619729389 284.11667002183606) rotate(0 70.60308504035345 70.60308504035339)"><path d="M48.85 2.71 C57.64 -1.3, 70.12 -0.37, 80.27 1.19 C90.42 2.75, 101.1 6.39, 109.73 12.09 C118.36 17.79, 126.78 26.5, 132.05 35.38 C137.32 44.26, 140.55 55.42, 141.34 65.37 C142.13 75.31, 140.49 85.65, 136.8 95.05 C133.11 104.46, 126.72 114.64, 119.21 121.79 C111.69 128.94, 101.38 134.84, 91.71 137.94 C82.05 141.05, 71.12 141.95, 61.23 140.42 C51.34 138.88, 40.87 134.53, 32.39 128.73 C23.91 122.93, 15.64 114.4, 10.35 105.61 C5.06 96.82, 1.64 86.16, 0.66 76 C-0.32 65.84, 1.05 54.25, 4.47 44.65 C7.88 35.05, 12.48 25.62, 21.15 18.42 C29.83 11.21, 49.12 4.37, 56.52 1.44 C63.92 -1.5, 65.1 -0.21, 65.55 0.81 M64.41 0.1 C74.33 -1.84, 86.9 2.37, 96.34 5.82 C105.78 9.26, 114.27 13.66, 121.05 20.79 C127.83 27.92, 133.55 38.83, 137 48.58 C140.46 58.32, 143.13 69.26, 141.77 79.26 C140.42 89.27, 134.74 99.85, 128.87 108.6 C123.01 117.34, 115.45 126.26, 106.61 131.74 C97.77 137.22, 86.13 140.66, 75.81 141.47 C65.5 142.28, 53.86 140.28, 44.69 136.61 C35.53 132.93, 27.5 126.52, 20.84 119.42 C14.18 112.32, 8.23 103.47, 4.73 94.02 C1.24 84.58, -1.48 72.98, -0.11 62.75 C1.25 52.53, 7.13 41.23, 12.93 32.66 C18.73 24.08, 25.96 16.55, 34.7 11.3 C43.44 6.06, 60.23 2.7, 65.36 1.19 C70.48 -0.32, 65.5 1.42, 65.47 2.23" stroke="#1e1e1e" stroke-width="1" fill="none"></path></g><g transform="translate(798.3615186197374 376.9216878919274) rotate(0 62.29972839355469 15.117485380634662)"><text x="62.29972839355469" y="21.18866750949752" font-family="Virgil, Segoe UI Emoji" font-size="24.187976609015433px" fill="#1e1e1e" text-anchor="middle" style="white-space: pre;" direction="ltr" dominant-baseline="alphabetic">Postgresql</text></g><g stroke-linecap="round"><g transform="translate(830.5317170518724 324.11873571630906) rotate(0 25.943596149628206 13.377886845481072)"><path d="M0.87 -0.21 C0.86 5.34, -1.09 27.37, -0.8 34.15 C-0.51 40.93, 0.92 38.35, 2.6 40.47 C4.29 42.58, 6.45 45.33, 9.32 46.86 C12.2 48.39, 15.96 49.3, 19.85 49.65 C23.74 50.01, 28.99 49.88, 32.64 49.01 C36.3 48.14, 38.95 46.13, 41.78 44.42 C44.6 42.7, 48.01 40.52, 49.61 38.7 C51.21 36.87, 51.03 37.6, 51.36 33.46 C51.7 29.32, 51.66 20.52, 51.61 13.86 C51.57 7.2, 51.32 -1.91, 51.1 -6.49 C50.88 -11.07, 51.37 -11.53, 50.3 -13.61 C49.24 -15.7, 47.9 -17.37, 44.72 -19 C41.53 -20.64, 35.84 -22.79, 31.21 -23.44 C26.58 -24.09, 20.94 -23.64, 16.96 -22.88 C12.97 -22.13, 10.05 -20.52, 7.29 -18.93 C4.52 -17.34, 1.68 -15.12, 0.36 -13.33 C-0.97 -11.55, -0.47 -10.62, -0.66 -8.22 C-0.85 -5.83, -0.93 -0.32, -0.76 1.02 M-0.14 -1.37 C0.3 4.31, 1.11 28.46, 1.49 35.65 C1.88 42.84, 0.79 40.28, 2.16 41.79 C3.54 43.31, 6.95 43.33, 9.74 44.75 C12.52 46.16, 15.33 49.74, 18.86 50.29 C22.39 50.85, 27.06 49.29, 30.92 48.09 C34.78 46.89, 39.1 44.74, 42.04 43.07 C44.99 41.4, 47.29 39.86, 48.57 38.06 C49.86 36.27, 49.14 36.32, 49.76 32.31 C50.38 28.29, 52.1 20.83, 52.31 13.97 C52.52 7.11, 51.07 -4.24, 51.01 -8.86 C50.95 -13.49, 53.01 -11.94, 51.93 -13.78 C50.85 -15.63, 47.57 -18.18, 44.52 -19.91 C41.46 -21.64, 38.23 -23.52, 33.59 -24.17 C28.95 -24.81, 20.87 -24.86, 16.67 -23.75 C12.47 -22.64, 10.8 -18.85, 8.4 -17.51 C5.99 -16.17, 3.44 -17.3, 2.26 -15.71 C1.08 -14.12, 1.49 -10.9, 1.3 -7.98 C1.11 -5.06, 1.16 0.22, 1.11 1.82" stroke="#1e1e1e" stroke-width="1" fill="none"></path></g></g><mask></mask><g stroke-linecap="round"><g transform="translate(830.9288129113058 312.28103548778944) rotate(0 25.877413506389303 5.360794102346603)"><path d="M-0.8 -0.07 C0.09 1, 2.92 4.36, 6.18 6.24 C9.43 8.11, 14.26 10.35, 18.72 11.18 C23.18 12, 28.56 11.83, 32.95 11.19 C37.35 10.56, 42.07 9.02, 45.08 7.37 C48.1 5.73, 49.93 2.42, 51.04 1.32 M0.98 -1.16 C1.69 0.14, 2.7 6.05, 5.55 7.79 C8.41 9.53, 13.43 8.49, 18.12 9.28 C22.81 10.07, 29.35 12.78, 33.69 12.54 C38.02 12.31, 41.07 9.93, 44.14 7.88 C47.21 5.84, 50.71 1.13, 52.08 0.28" stroke="#1e1e1e" stroke-width="1" fill="none"></path></g></g><mask></mask><g stroke-linecap="round"><g transform="translate(830.5038296193759 323.48403566556215) rotate(0 25.877413506389303 5.360794102346631)"><path d="M0.62 0.02 C1.73 1.21, 2.76 5.28, 5.88 7.07 C9 8.87, 14.79 10.15, 19.32 10.8 C23.85 11.44, 29.03 11.56, 33.04 10.95 C37.05 10.34, 40.25 8.84, 43.36 7.15 C46.48 5.45, 50.31 1.67, 51.73 0.77 M-0.52 -1.02 C0.54 -0.15, 1.84 3.78, 5.1 5.4 C8.36 7.02, 14.25 7.57, 19.04 8.7 C23.82 9.83, 29.46 12.36, 33.81 12.17 C38.17 11.98, 41.96 9.05, 45.18 7.53 C48.4 6.02, 51.89 4.24, 53.13 3.09" stroke="#1e1e1e" stroke-width="1" fill="none"></path></g></g><mask></mask><g stroke-linecap="round"><g transform="translate(830.1400180932205 331.60060764954665) rotate(0 25.877413506389303 5.360794102346631)"><path d="M0.32 0.85 C1.3 1.96, 3.3 5.08, 6.48 6.69 C9.66 8.31, 15.26 9.88, 19.4 10.55 C23.54 11.22, 27.21 11.38, 31.32 10.72 C35.43 10.06, 40.62 8.08, 44.05 6.59 C47.48 5.1, 50.63 2.45, 51.89 1.75 M-0.97 0.25 C-0.13 1, 2.66 2.86, 6.02 4.82 C9.37 6.77, 14.97 10.82, 19.17 11.99 C23.36 13.15, 27.29 12.7, 31.19 11.82 C35.09 10.94, 38.87 8.5, 42.57 6.69 C46.26 4.87, 51.77 1.78, 53.37 0.94" stroke="#1e1e1e" stroke-width="1" fill="none"></path></g></g><mask></mask><g stroke-linecap="round" transform="translate(41.54464256211253 329.52994931960245) rotate(0 39.0546875 64.203125)"><path d="M19.53 0 C30.26 -2.09, 45.07 -0.42, 58.58 0 M58.58 0 C70.26 -0.65, 78.07 7.67, 78.11 19.53 M78.11 19.53 C79.73 39.72, 78 64.99, 78.11 108.88 M78.11 108.88 C79.67 122.37, 70.95 128.04, 58.58 128.41 M58.58 128.41 C46.45 127.24, 33.56 128.5, 19.53 128.41 M19.53 128.41 C8.1 128.45, -1 120.63, 0 108.88 M0 108.88 C-1.38 84.42, -0.75 62.21, 0 19.53 M0 19.53 C-0.61 5.59, 7.42 -0.37, 19.53 0" stroke="#1971c2" stroke-width="2.5" fill="none" stroke-dasharray="1.5 8"></path></g><g transform="translate(49.631350630960185 363.73307431960245) rotate(0 30.967979431152344 30)"><text x="30.967979431152344" y="14.016" font-family="Virgil, Segoe UI Emoji" font-size="16px" fill="#1971c2" text-anchor="middle" style="white-space: pre;" direction="ltr" dominant-baseline="alphabetic">realtime</text><text x="30.967979431152344" y="34.016" font-family="Virgil, Segoe UI Emoji" font-size="16px" fill="#1971c2" text-anchor="middle" style="white-space: pre;" direction="ltr" dominant-baseline="alphabetic">room</text><text x="30.967979431152344" y="54.016" font-family="Virgil, Segoe UI Emoji" font-size="16px" fill="#1971c2" text-anchor="middle" style="white-space: pre;" direction="ltr" dominant-baseline="alphabetic">start</text></g><g stroke-linecap="round" transform="translate(135.875032296847 329.61913567076056) rotate(0 39.0546875 64.203125)"><path d="M19.53 0 C30.74 1.09, 39.52 1.66, 58.58 0 M58.58 0 C72.16 0.58, 77.04 5.94, 78.11 19.53 M78.11 19.53 C76.58 46.69, 77.26 71.58, 78.11 108.88 M78.11 108.88 C77.95 123.53, 71.96 128, 58.58 128.41 M58.58 128.41 C42.7 127.18, 29.1 129.78, 19.53 128.41 M19.53 128.41 C5.22 127.65, 0.77 120.03, 0 108.88 M0 108.88 C0.49 76.92, 1.97 44.57, 0 19.53 M0 19.53 C1.05 8.19, 4.84 -0.09, 19.53 0" stroke="#1971c2" stroke-width="2.5" fill="none" stroke-dasharray="1.5 8"></path></g><g transform="translate(142.3937319428431 353.82226067076056) rotate(0 32.535987854003906 40)"><text x="32.535987854003906" y="14.016" font-family="Virgil, Segoe UI Emoji" font-size="16px" fill="#1971c2" text-anchor="middle" style="white-space: pre;" direction="ltr" dominant-baseline="alphabetic">db</text><text x="32.535987854003906" y="34.016" font-family="Virgil, Segoe UI Emoji" font-size="16px" fill="#1971c2" text-anchor="middle" style="white-space: pre;" direction="ltr" dominant-baseline="alphabetic">game &amp; </text><text x="32.535987854003906" y="54.016" font-family="Virgil, Segoe UI Emoji" font-size="16px" fill="#1971c2" text-anchor="middle" style="white-space: pre;" direction="ltr" dominant-baseline="alphabetic">turns</text><text x="32.535987854003906" y="74.016" font-family="Virgil, Segoe UI Emoji" font-size="16px" fill="#1971c2" text-anchor="middle" style="white-space: pre;" direction="ltr" dominant-baseline="alphabetic">insert</text></g><g stroke-linecap="round" transform="translate(223.13668445752268 330.0909602381787) rotate(0 39.0546875 64.203125)"><path d="M19.53 0 C26.27 -1.99, 34.25 1.35, 58.58 0 M58.58 0 C72.79 -0.32, 79.35 7.52, 78.11 19.53 M78.11 19.53 C79.38 50.62, 80.66 80.07, 78.11 108.88 M78.11 108.88 C78.35 123.82, 73.18 126.86, 58.58 128.41 M58.58 128.41 C47.16 126.75, 33.9 126.72, 19.53 128.41 M19.53 128.41 C5.91 127.23, -0.51 123.28, 0 108.88 M0 108.88 C-0.15 82.52, 1.83 52.92, 0 19.53 M0 19.53 C-1.69 7.46, 5.19 -0.59, 19.53 0" stroke="#1971c2" stroke-width="2.5" fill="none" stroke-dasharray="1.5 8"></path></g><g transform="translate(235.51138691113596 374.2940852381787) rotate(0 26.67998504638672 20)"><text x="26.67998504638672" y="14.016" font-family="Virgil, Segoe UI Emoji" font-size="16px" fill="#1971c2" text-anchor="middle" style="white-space: pre;" direction="ltr" dominant-baseline="alphabetic">turn</text><text x="26.67998504638672" y="34.016" font-family="Virgil, Segoe UI Emoji" font-size="16px" fill="#1971c2" text-anchor="middle" style="white-space: pre;" direction="ltr" dominant-baseline="alphabetic">control</text></g></svg>