<svg width="712" height="181" viewBox="0 0 712 181" fill="none" xmlns="http://www.w3.org/2000/svg">
<path fill-rule="evenodd" clip-rule="evenodd" d="M274.939 90.752L261.107 139.491C260.557 141.033 259.541 142.324 258.083 143.349C256.623 144.377 255.01 144.896 253.27 144.896C251.529 144.896 249.916 144.377 248.456 143.349C246.999 142.324 245.982 141.033 245.425 139.471L224.155 75.6616C223.742 74.3187 223.537 72.8788 223.537 71.3448C223.537 66.7699 225.996 64.3109 230.571 64.3109C232.625 64.3109 234.37 64.9201 235.757 66.1405C237.103 67.3257 238.172 69.1503 238.993 71.6143L253.519 116.938L267.252 70.488C267.785 68.675 268.731 67.1888 270.082 66.0537C271.47 64.8875 273.255 64.3109 275.394 64.3109C277.44 64.3109 279.178 64.8899 280.563 66.0537C281.914 67.1888 282.86 68.675 283.403 70.5225L295.471 117.722L310.21 71.6283C311.671 66.8306 314.519 64.3109 318.638 64.3109C320.902 64.3109 322.673 64.9291 323.887 66.2007C325.082 67.453 325.672 69.1381 325.672 71.2012C325.672 72.8523 325.411 74.3625 324.902 75.6837L303.633 139.491C303.085 141.025 302.098 142.313 300.695 143.339C299.279 144.374 297.683 144.896 295.938 144.896C294.106 144.896 292.444 144.378 290.981 143.349C289.507 142.312 288.529 140.999 288.077 139.416L274.939 90.752ZM393.335 68.9668C399.479 72.4567 404.303 77.3047 407.792 83.4965C411.279 89.6851 413.021 96.7501 413.021 104.675C413.021 112.503 411.303 119.518 407.866 125.705C404.425 131.899 399.624 136.749 393.479 140.24C387.338 143.728 380.343 145.471 372.512 145.471C364.682 145.471 357.665 143.729 351.477 140.242C345.283 136.751 340.457 131.901 337.015 125.705C333.578 119.518 331.861 112.503 331.861 104.675C331.861 96.7523 333.577 89.6891 337.015 83.5018C340.457 77.3062 345.283 72.4558 351.477 68.9651C357.665 65.4783 364.682 63.7362 372.512 63.7362C380.248 63.7362 387.194 65.479 393.335 68.9668ZM359.877 81.9744C356.156 84.1791 353.243 87.2526 351.126 91.2114C349.003 95.1807 347.94 99.6637 347.94 104.675C347.94 109.686 349.002 114.143 351.124 118.063C353.241 121.976 356.155 125.027 359.877 127.233C363.598 129.438 367.803 130.541 372.512 130.541C377.221 130.541 381.427 129.438 385.148 127.233C388.868 125.028 391.756 121.98 393.825 118.071C395.901 114.149 396.941 109.689 396.941 104.675C396.941 99.6606 395.901 95.1745 393.823 91.2033C391.753 87.2482 388.866 84.1776 385.148 81.9744C381.427 79.7692 377.221 78.6661 372.512 78.6661C367.803 78.6661 363.598 79.7692 359.877 81.9744ZM450.948 67.1842H464.602C466.854 67.1842 468.726 67.8448 470.165 69.1734C471.623 70.519 472.354 72.3199 472.354 74.5055C472.354 76.5072 471.616 78.2107 470.165 79.5503C468.726 80.8788 466.854 81.5395 464.602 81.5395H450.948V136.569C450.948 139.027 450.181 141.055 448.644 142.592C447.102 144.134 444.979 144.896 442.334 144.896C440.159 144.896 438.258 144.125 436.683 142.604C435.091 141.067 434.294 139.034 434.294 136.569V81.5395H429.117C426.865 81.5395 424.993 80.8788 423.554 79.5503C422.103 78.2107 421.364 76.5072 421.364 74.5055C421.364 72.3199 422.096 70.519 423.554 69.1734C424.993 67.8448 426.865 67.1842 429.117 67.1842H434.294V65.7419C434.294 58.7839 435.696 52.6605 438.506 47.3853C441.324 42.0959 445.288 37.983 450.385 35.0635C455.473 32.1488 461.272 30.6931 467.763 30.6931C470.109 30.6931 472.095 31.4007 473.674 32.8161C475.276 34.2524 476.09 36.1041 476.09 38.3017C476.09 40.4993 475.276 42.351 473.674 43.7872C472.095 45.2027 470.109 45.9103 467.763 45.9103C462.671 45.9103 458.63 47.5716 455.569 50.9026C452.492 54.251 450.948 58.7014 450.948 64.3052V67.1842ZM487.009 32.9973C488.544 31.463 490.523 30.6931 492.888 30.6931C495.253 30.6931 497.233 31.463 498.768 32.9973C500.302 34.5315 501.072 36.5114 501.072 38.8763V117.318C501.072 120.696 501.703 123.445 502.947 125.578C504.12 127.588 505.532 128.53 507.255 128.53H510.847C513.042 128.53 514.871 129.317 516.262 130.875C517.63 132.408 518.312 134.37 518.312 136.713C518.312 139.144 517.246 141.164 515.175 142.69C513.171 144.166 510.617 144.896 507.542 144.896H507.255C502.937 144.896 499.03 143.711 495.558 141.346C492.096 138.988 489.415 135.681 487.522 131.446C485.643 127.243 484.705 122.53 484.705 117.318V38.8763C484.705 36.5114 485.475 34.5315 487.009 32.9973ZM583.82 68.9668C589.964 72.4567 594.787 77.3047 598.277 83.4965C601.764 89.6851 603.505 96.7501 603.505 104.675C603.505 112.503 601.788 119.518 598.351 125.705C594.91 131.899 590.109 136.749 583.964 140.24C577.823 143.728 570.828 145.471 562.997 145.471C555.167 145.471 548.15 143.729 541.962 140.242C535.768 136.751 530.942 131.901 527.5 125.705C524.063 119.518 522.346 112.503 522.346 104.675C522.346 96.7523 524.062 89.6891 527.5 83.5018C530.942 77.3062 535.768 72.4558 541.962 68.9651C548.15 65.4783 555.167 63.7362 562.997 63.7362C570.733 63.7362 577.679 65.479 583.82 68.9668ZM550.362 81.9744C546.641 84.1791 543.728 87.2526 541.611 91.2114C539.488 95.1807 538.425 99.6637 538.425 104.675C538.425 109.686 539.487 114.143 541.609 118.063C543.726 121.976 546.64 125.027 550.362 127.233C554.083 129.438 558.288 130.541 562.997 130.541C567.706 130.541 571.912 129.438 575.633 127.233C579.353 125.028 582.241 121.98 584.31 118.071C586.386 114.149 587.426 109.689 587.426 104.675C587.426 99.6606 586.386 95.1745 584.308 91.2033C582.238 87.2482 579.351 84.1776 575.633 81.9744C571.912 79.7692 567.706 78.6661 562.997 78.6661C558.288 78.6661 554.083 79.7692 550.362 81.9744ZM659.804 90.752L645.972 139.491C645.422 141.033 644.406 142.324 642.948 143.349C641.488 144.377 639.875 144.896 638.135 144.896C636.394 144.896 634.781 144.377 633.321 143.349C631.864 142.324 630.847 141.033 630.29 139.471L609.02 75.6616C608.607 74.3187 608.401 72.8788 608.401 71.3448C608.401 66.7699 610.86 64.3109 615.435 64.3109C617.49 64.3109 619.235 64.9201 620.622 66.1405C621.968 67.3257 623.037 69.1503 623.858 71.6143L638.383 116.938L652.117 70.488C652.65 68.675 653.596 67.1888 654.947 66.0537C656.335 64.8875 658.12 64.3109 660.259 64.3109C662.305 64.3109 664.042 64.8899 665.428 66.0537C666.779 67.1888 667.725 68.675 668.268 70.5225L680.336 117.722L695.075 71.6283C696.536 66.8306 699.384 64.3109 703.503 64.3109C705.767 64.3109 707.538 64.9291 708.751 66.2007C709.947 67.453 710.537 69.1381 710.537 71.2012C710.537 72.8523 710.276 74.3625 709.767 75.6837L688.497 139.491C687.95 141.025 686.963 142.313 685.56 143.339C684.144 144.374 682.548 144.896 680.803 144.896C678.971 144.896 677.309 144.378 675.846 143.349C674.372 142.312 673.394 140.999 672.942 139.416L659.804 90.752Z" fill="#1D262C" stroke="#1D262C" stroke-width="2"/>
<mask id="mask0_3050_1796" style="mask-type:alpha" maskUnits="userSpaceOnUse" x="0" y="-5" width="186" height="186">
<path d="M92.9884 180.292C144.112 180.292 185.555 138.849 185.555 87.7258C185.555 36.6025 144.112 -4.84106 92.9884 -4.84106C41.8652 -4.84106 0.421631 36.6025 0.421631 87.7258C0.421631 138.849 41.8652 180.292 92.9884 180.292Z" fill="white"/>
</mask>
<g mask="url(#mask0_3050_1796)">
<path d="M160.239 39.9993C181.44 113.648 107.033 173.242 33.3713 145.363C27.6231 143.188 23.8966 148.243 28.3146 152.876C50.7936 176.45 82.2945 184.821 112.266 179.347C159.779 170.672 193.018 120.65 184.612 74.6183C182.796 64.6712 178.975 50.9593 168.691 36.5841C164.125 30.2027 158.097 32.5575 160.239 39.9993Z" fill="#1D262C"/>
<path d="M88.99 129.165C127.279 118.295 144.664 85.4115 142.985 54.3796C141.853 33.4565 126.662 9.62503 98.3501 1.32433C93.6697 -0.0479179 88.3062 2.09843 93.9657 7.71753C99.8393 13.5492 106.349 21.6266 108.49 30.3295C123.069 89.6093 47.3952 110.591 32.359 84.1435C20.608 63.4742 40.725 44.082 69.725 49.082C77.9261 50.496 80.608 42.4742 71.9348 38.4742C61.1771 33.5129 36.6025 30.5872 17.608 47.4742C-1.38655 64.3612 -4.36608 90.532 10.6251 111.466C25.6162 132.4 63.4837 136.407 88.99 129.165Z" fill="#1D262C"/>
</g>
</svg>
